<svg width="15" height="15" viewBox="0 0 15 15" fill="none" xmlns="http://www.w3.org/2000/svg">
<g clip-path="url(#clip0_270_162)">
<path d="M2.43961 11.8968H4.30395V7.36904L1.64062 5.37158V11.0978C1.64062 11.5399 1.99887 11.8968 2.43961 11.8968Z" fill="#4285F4"/>
<path d="M10.696 11.8968H12.5604C13.0025 11.8968 13.3594 11.5386 13.3594 11.0978V5.37158L10.696 7.3691" fill="#34A853"/>
<path d="M10.696 3.90678V7.36915L13.3594 5.37169V4.30622C13.3594 3.31815 12.2314 2.75483 11.4418 3.34745" fill="#FBBC04"/>
<path d="M4.30396 7.36916V3.90686L7.49995 6.30375L10.6959 3.90674V7.3691L7.49995 9.76617" fill="#EA4335"/>
<path d="M1.64062 4.30622V5.37157L4.30395 7.36909V3.90678L3.55822 3.34745C2.76721 2.75483 1.64062 3.31815 1.64062 4.30622Z" fill="#C5221F"/>
</g>
<defs>
<clipPath id="clip0_270_162">
<rect width="15" height="15" fill="white"/>
</clipPath>
</defs>
</svg>
